<svg id="Capa_1" data-name="Capa 1" xmlns="http://www.w3.org/2000/svg" xmlns:xlink="http://www.w3.org/1999/xlink" viewBox="0 0 1440 706"><defs><style>.cls-1{fill:#fff;}.cls-2,.cls-4{fill:#ddd;}.cls-2,.cls-3{opacity:0.86;}.cls-5{opacity:0.52;fill:url(#Degradado_sin_nombre_42);}.cls-6{opacity:0.44;fill:url(#Degradado_sin_nombre_42-2);}</style><radialGradient id="Degradado_sin_nombre_42" cx="720" cy="561.64" r="174.31" gradientUnits="userSpaceOnUse"><stop offset="0" stop-color="#fff"/><stop offset="1" stop-color="#a9a9a9"/></radialGradient><radialGradient id="Degradado_sin_nombre_42-2" cx="733.57" cy="572.29" r="211.7" xlink:href="#Degradado_sin_nombre_42"/></defs><rect class="cls-1" width="1440" height="706"/><path class="cls-2" d="M1090.43,438.57a19.63,19.63,0,0,1-4.57-6.28c-4.26-9.41.9-18.73,1.14-19.15,4.22-7.34,11.91-9.57,20.29-12a59.82,59.82,0,0,1,19.71-2.28c.54,3.57,1.22,8.68,1.71,14.85,1,11.82,1.39,17.82-.85,22.58-.37.77-5.52,11.29-15.72,12.28a18.87,18.87,0,0,1-9.14-1.71,19.65,19.65,0,0,1-6.29-4.57l6.58-9.15,17.71.57L1106.14,430a32.32,32.32,0,0,0,7.43-12,21,21,0,0,0-9.43,7.14Z"/><path class="cls-2" d="M362.14,329.43l20-.57q2.3,12.57,4.57,25.14H375.29l8.57,20.57-26.29-30.86,12.57.58Q366.15,336.85,362.14,329.43Z"/><path class="cls-2" d="M414.29,58a40,40,0,0,1-11.15,6.86c-7.49,3-11.33,1.82-20.57,5.14-6.33,2.28-9.88,3.61-12,7.29-2.81,4.87-1.73,11.44,1.29,15.85,4.25,6.22,12.47,8.35,19.28,6.43a18.73,18.73,0,0,0,13.29-15.86L393.29,85a36.19,36.19,0,0,0,18.78-12.93,49.25,49.25,0,0,1-6.64,2.36,48.46,48.46,0,0,1-11.93,1.71,23.53,23.53,0,0,0,9.21-2.93C411,68.52,413.65,60.2,414.29,58Z"/><path class="cls-2" d="M1294.85,522.14c-3.1-8.26-11.07-11.77-12.57-12.43a24.25,24.25,0,0,0-6.71-1.86,9.68,9.68,0,0,0,2.28-3.86,10.38,10.38,0,0,0-.85-7.71l-11.43,13-16.72,19,24.58-2.43L1274,521a9.75,9.75,0,0,1,4.28,3.15c3,4,2.42,10.48-.85,13.71-5.42,5.34-16-.14-17.43-.86a23.16,23.16,0,0,1-7-5.57,16.32,16.32,0,0,0,.85,8.57c3.09,7.75,11.55,10,13.58,10.58,1.23.33,12.15,3.06,20.85-4.43C1295.12,540.24,1297.93,530.33,1294.85,522.14ZM1266.43,517a2.66,2.66,0,0,1-2.43-.3c2.27-2.8,3.16-3.32,3.5-3.13C1268,513.87,1268,516.28,1266.43,517Z"/><path class="cls-2" d="M292.57,492.14a20.28,20.28,0,0,0-3-16.28c-5.38-7.54-14.78-8-17.14-8.15-2.59-.13-11.18-.57-17.57,6-7.52,7.74-5.35,18.37-5.15,19.29,1.95,8.74,8.93,13.16,11.15,14.57A26.91,26.91,0,0,0,269,511l21,.43a21.7,21.7,0,0,1-.86-9.86C289.83,497.12,291.59,496,292.57,492.14Zm-30.21-5.78a3,3,0,1,1,3-3A3,3,0,0,1,262.36,486.36Zm13.93,0a3,3,0,1,1,3-3A3,3,0,0,1,276.29,486.36Z"/><path class="cls-2" d="M209.86,340l-15.72-31.86q-7.71,16.29-15.43,32.58c-.3,1-2.74,9.53,2.29,16,6,7.72,19.65,8.59,26.29,1.14C211.33,353.35,212.17,346.4,209.86,340Zm-16.29,16.46c-.27.1-4.78,1.65-8.14-1.07-3.77-3.05-3.23-9.16-2.36-9.43.71-.22,1.34,3.51,4.5,5.57,3.35,2.18,7.8,1.33,11.14.22A9.44,9.44,0,0,1,193.57,356.49Z"/><path class="cls-2" d="M1229.86,235.71A30.19,30.19,0,0,1,1219,240c-3.63.66-11.18,2-17.71-2.57-5.67-4-7.23-10.08-7.72-12-.25-1-2.73-11.29,3.14-18.29,3.21-3.81,6-3.14,9.72-6.28,3.57-3,7.21-8.67,7.43-20.57a26.39,26.39,0,0,1,4.28,20.85c-.06.16-1.05,2.73.29,4.29s4.11,1.25,5.43.28c2.53-1.85,1.9-7.92-1.15-15.14a25.22,25.22,0,0,1,8.58,9.72c2.7,5.45,2.49,10.25,2.28,15.14-.19,4.44-.35,7.33-2.57,9.71a11,11,0,0,1-7.14,3.15,16.68,16.68,0,0,0,.85-4.29,16.25,16.25,0,0,0-.57-5.43,9.4,9.4,0,0,1-2.85,4.86c-.5.43-2.22,1.94-3.15,1.43s.16-2.62-.85-5.15c-.67-1.65-2.34-3.67-4.29-3.71-2.86-.06-4.67,4.14-4.86,4.57a10.72,10.72,0,0,0,.86,10c2.88,4.16,8.57,4.65,14.29,5.14A38.17,38.17,0,0,0,1229.86,235.71Z"/><g class="cls-3"><path class="cls-4" d="M1348.83,332.64l-12.64-4.93q-.09,7.32-.19,14.65l12.93,6.72Z"/><path class="cls-4" d="M1336.83,375.71,1349,368q0-6.71-.08-13.41l-12.13,7.59Z"/><path class="cls-4" d="M1349,351.79h0c0-.65,0-1.31,0-2C1348.94,350.48,1348.94,351.13,1349,351.79Z"/><path class="cls-4" d="M1322.47,351.71l14.36,7.72,12.12-7.64-13-6.93Z"/><path class="cls-4" d="M1336,342.36l0,2.5,0-2.5Z"/><path class="cls-4" d="M1348.93,349.08h0v0Z"/><path class="cls-4" d="M1349,354.57c0-.93,0-1.85,0-2.78,0,.93,0,1.87,0,2.8Z"/></g><g class="cls-3"><path class="cls-4" d="M1351.36,333.07l12.64-4.93.18,14.64-12.92,6.73Z"/><path class="cls-4" d="M1363.36,376.14l-12.22-7.71q0-6.71.08-13.41l12.14,7.59Z"/><path class="cls-4" d="M1351.24,352.22h0c0-.66,0-1.31,0-2C1351.25,350.91,1351.25,351.56,1351.24,352.22Z"/><path class="cls-4" d="M1377.71,352.14l-14.35,7.72-12.12-7.64,13-6.93Z"/><path class="cls-4" d="M1364.18,342.78l0,2.51,0-2.51Z"/><path class="cls-4" d="M1351.26,349.51h0c0,.25,0,.5,0,.75C1351.25,350,1351.26,349.76,1351.26,349.51Z"/><path class="cls-4" d="M1351.19,355c0-.93,0-1.86,0-2.78,0,.93,0,1.87,0,2.8Z"/></g><path class="cls-5" d="M541.29,617.1A178.71,178.71,0,1,1,875.07,706H899a198.92,198.92,0,0,0,20.83-88.9c0-110.35-89.46-199.82-199.82-199.82S520.18,506.75,520.18,617.1A198.92,198.92,0,0,0,541,706h23.92A177.89,177.89,0,0,1,541.29,617.1Z"/><path class="cls-6" d="M514.74,706a223.91,223.91,0,0,1-19.49-91.65C495.25,490.22,595.88,389.6,720,389.6S944.75,490.22,944.75,614.35A223.91,223.91,0,0,1,925.26,706H954a250.43,250.43,0,0,0,17.27-91.65c0-138.79-112.51-251.29-251.29-251.29S468.71,475.56,468.71,614.35A250.43,250.43,0,0,0,486,706Z"/></svg>